<?xml version="1.0" standalone="no"?>
<!DOCTYPE svg PUBLIC "-//W3C//DTD SVG 20010904//EN"
 "http://www.w3.org/TR/2001/REC-SVG-20010904/DTD/svg10.dtd">
<svg version="1.0" xmlns="http://www.w3.org/2000/svg"
 width="700.000000pt" height="700.000000pt" viewBox="0 0 700.000000 700.000000"
 preserveAspectRatio="xMidYMid meet">
<metadata>
Created by potrace 1.14, written by Peter Selinger 2001-2017
</metadata>
<g transform="translate(0.000000,700.000000) scale(0.100000,-0.100000)"
fill="#000000" stroke="none">
<path d="M550 4455 l0 -675 150 0 150 0 0 525 0 525 1225 0 1225 0 0 150 0
150 -1375 0 -1375 0 0 -675z"/>
<path d="M3780 4980 l0 -150 1175 0 1175 0 0 -525 0 -525 150 0 150 0 0 675 0
675 -1325 0 -1325 0 0 -150z"/>
<path d="M1230 4218 l0 -178 330 0 330 0 0 -854 0 -854 209 1 c181 1 210 3
213 16 2 9 3 393 3 854 l-1 837 327 0 c253 0 328 3 331 13 2 6 4 86 3 177 l0
165 -873 1 -872 1 0 -179z"/>
<path d="M4242 3378 c0 -557 1 -1022 3 -1033 4 -20 12 -20 692 -19 l688 0 0
179 0 180 -477 0 -478 0 0 852 0 853 -213 0 -214 0 -1 -1012z"/>
<path d="M550 2425 l0 -675 1375 0 1375 0 0 150 0 150 -1225 0 -1225 0 0 525
0 525 -150 0 -150 0 0 -675z"/>
<path d="M6130 2575 l0 -525 -1225 0 -1225 0 0 -150 0 -150 1375 0 1375 0 0
675 0 675 -150 0 -150 0 0 -525z"/>
</g>
</svg>
