<svg id="레이어_1" data-name="레이어 1" xmlns="http://www.w3.org/2000/svg" viewBox="0 0 167.09 58.26"><defs><style>.cls-1{fill:#0047ba;}.cls-2{fill:#f5333f;}</style></defs><path class="cls-1" d="M36.24,71a18.15,18.15,0,0,0-7.45-2.9c-2.28-.47-5.59-.29-6.51-2.94-.42-1.21,0-2.14.39-3.28,0-.11.06-.21.08-.31s0-.11,0-.16a4.28,4.28,0,0,0,.07-1.25,1.59,1.59,0,0,1-1-1.43,2.7,2.7,0,0,1,.22-.93,1.11,1.11,0,0,0,.07-.16,1.59,1.59,0,0,1-.22-.83,1.37,1.37,0,0,1,.31-.93.47.47,0,0,0,.14-.32A7.82,7.82,0,0,0,22,53.39c-.2-.66-.19-1-.71-1.35a12.25,12.25,0,0,1-1-.91c-.4-.37-1.1-.89-.88-1.5s.94-1,1.4-1.31a26.48,26.48,0,0,0,2.36-1.8,5,5,0,0,0,1.44-1.66,5.77,5.77,0,0,0,.7-3.08A30.91,30.91,0,0,1,25.55,37,15.28,15.28,0,0,1,27,32.47a17.41,17.41,0,0,1,3.71-4.88l.64-.55a23.74,23.74,0,0,1,21-4.26C58,24.3,63.4,28,65.91,33.34v0l.1.24c.2.46.4.93.56,1.42a17,17,0,0,1,.79,4.18,21.41,21.41,0,0,1-.31,6.62h5c.15-.74.26-1.45.27-1.55a22.62,22.62,0,0,0,.18-4.64,21.09,21.09,0,0,0-6.56-14c-.41-.39-.84-.76-1.28-1.12A31.17,31.17,0,0,0,41,18.09a28.31,28.31,0,0,0-6,1.51,23.83,23.83,0,0,0-11.21,8.08,19,19,0,0,0-3,6.24,27.72,27.72,0,0,0-.57,6.1,14,14,0,0,1-.15,2.24s0,0,0,.06a3.9,3.9,0,0,1-1.37,2.13l-3.92,2.7c-1.21.85-2.18,2.05-.86,3.58a23,23,0,0,0,3.12,2.85,1.69,1.69,0,0,1,.41.86,2.25,2.25,0,0,1,0,1.38c0,.11-.12.18-.14.3s-.21.23-.27.35a1.89,1.89,0,0,0-.14,1.08,2.12,2.12,0,0,0,.17.58,2.19,2.19,0,0,0-.3.75A2.52,2.52,0,0,0,17.27,61c-1.16,3.39-1,7,2.47,8.91s7.48,1.63,11.06,2.79a5.2,5.2,0,0,1,3.72,3.36H39.6l0-.07a9.76,9.76,0,0,0-1.43-3.08A8.93,8.93,0,0,0,36.24,71Z" transform="translate(-13.3 -17.8)"/><path class="cls-1" d="M35,63.59a14.62,14.62,0,0,1-3.87-1c-1.83-1-1.41-2.62-.93-4.26l.05-.18-.1-.14A1.53,1.53,0,0,1,30,56.91a1.49,1.49,0,0,1,.13-.39l.08-.16-.06-.16a1,1,0,0,1-.07-.29.94.94,0,0,1,0-.5l0,0a.68.68,0,0,0,.17-.31c0-.05,0-.1.07-.16a2.17,2.17,0,0,0,0-1.13l0-.08A1.29,1.29,0,0,0,30,53l-.47-.46-.07-.07a8.54,8.54,0,0,1-1.21-1.35,1.16,1.16,0,0,1-.29-.82,1.77,1.77,0,0,1,.72-1.06L31,47.46a3,3,0,0,0,.91-1.68A8.11,8.11,0,0,0,32,44.57v-.35c0-.23,0-.47,0-.7v-.14a19.74,19.74,0,0,1,.29-3.56,13.39,13.39,0,0,1,1.67-4.06,13.62,13.62,0,0,1,6.26-5.29,14.52,14.52,0,0,1,3.36-1,15.69,15.69,0,0,1,13.22,4.21,14.39,14.39,0,0,1,4.37,9c0,.27,0,.55.05.84,0,.7-.05,1.48-.13,2.35h.66a23.22,23.22,0,0,0,.13-2.36h0q0-.48-.06-.9a15,15,0,0,0-4.59-9.46,16.3,16.3,0,0,0-13.75-4.38,14.62,14.62,0,0,0-3.5,1,14,14,0,0,0-8.33,9.84,20.75,20.75,0,0,0-.31,3.74v.3c0,.17,0,.34,0,.52s0,.24,0,.36a7.2,7.2,0,0,1-.08,1.12,2.29,2.29,0,0,1-.66,1.21L28.31,48.7a2.29,2.29,0,0,0-1,1.54,1.93,1.93,0,0,0,.42,1.37,9.94,9.94,0,0,0,1.31,1.45l.51.5a.93.93,0,0,1,.12.32l0,.09a1.27,1.27,0,0,1,0,.74s0,.09-.06.15l0,0a.61.61,0,0,0-.11.18,1.86,1.86,0,0,0-.12.93c0,.11,0,.21.07.32a1.81,1.81,0,0,0-.14.45,2.25,2.25,0,0,0,.27,1.56c-.5,1.78-1.32,3.51,1.27,4.93a13.76,13.76,0,0,0,4.09,1c.37.07.71.14,1,.22v-.74Z" transform="translate(-13.3 -17.8)"/><path class="cls-1" d="M65.36,42.34c0-.38,0-.72-.07-1.06a17.42,17.42,0,0,0-5.64-11.1,20.64,20.64,0,0,0-16.86-5.12,19.27,19.27,0,0,0-4.3,1.21,17.4,17.4,0,0,0-8.06,6.51,15.91,15.91,0,0,0-2.17,5,23.28,23.28,0,0,0-.39,4.37l0,1.38a9,9,0,0,1-.09,1.26A2.49,2.49,0,0,1,27,46.12l-2.72,2.1A2.9,2.9,0,0,0,23,50.14a2.35,2.35,0,0,0,.56,1.72,11.79,11.79,0,0,0,1.58,1.68l.64.59a1.58,1.58,0,0,1,.1.29l0,.11a1.22,1.22,0,0,1,0,.73.78.78,0,0,0-.08.18h0a.83.83,0,0,0-.17.24,2.28,2.28,0,0,0-.15,1.18,1.91,1.91,0,0,0,.06.33,2.46,2.46,0,0,0-.15.51,2.75,2.75,0,0,0,.31,1.86c-.47,1.59-1.27,3.89,1.95,5.83a13.63,13.63,0,0,0,4.76,1.5c.76.14,2.36.34,3.53.58v-1.1c-1.21-.23-2.65-.44-3.35-.57a12.33,12.33,0,0,1-4.31-1.35c-2.38-1.44-2-2.88-1.42-4.8l.09-.28-.17-.25a1.56,1.56,0,0,1-.27-1.19,1.28,1.28,0,0,1,.14-.4l.15-.25L26.72,57a1,1,0,0,1-.08-.29.9.9,0,0,1,0-.48.94.94,0,0,0,.23-.4,1.65,1.65,0,0,0,.09-.22,2.57,2.57,0,0,0,0-1.4l0-.1a1.62,1.62,0,0,0-.42-.85c-.24-.24-.46-.43-.66-.62a10.85,10.85,0,0,1-1.45-1.54,1.15,1.15,0,0,1-.31-.82,1.85,1.85,0,0,1,.81-1.1l2.73-2.11a3.66,3.66,0,0,0,1.17-2A8.73,8.73,0,0,0,29,43.58c0-.14,0-.27,0-.4l0-1a21.24,21.24,0,0,1,.36-4.11,15,15,0,0,1,2-4.65,16.26,16.26,0,0,1,7.53-6.07A17.81,17.81,0,0,1,43,26.24,19.51,19.51,0,0,1,58.9,31.08a16.24,16.24,0,0,1,5.26,10.33c0,.31,0,.63.06,1A28.63,28.63,0,0,1,64,45.87h1.14a30,30,0,0,0,.24-3.52Z" transform="translate(-13.3 -17.8)"/><path class="cls-2" d="M69.7,76.06V48.59h6V60L86.23,48.59h7.43L83.08,59.44,94.69,76.06H87.22L79.06,63.71l-3.41,3.5v8.85Z" transform="translate(-13.3 -17.8)"/><path class="cls-2" d="M43.65,76.06V48.59H56.39Q65,48.59,65,55.4a6,6,0,0,1-3.68,5.73q5,1.47,5,7a7.06,7.06,0,0,1-2.92,6.08,11,11,0,0,1-6.64,1.89Zm6-22.77v6.42h6q3.65,0,3.64-3.27t-4.09-3.15Zm0,10.54v7.53H56c2.94,0,4.4-1.2,4.4-3.61,0-2.62-1.43-3.92-4.28-3.92Z" transform="translate(-13.3 -17.8)"/><path class="cls-1" d="M106.63,53.29a9.76,9.76,0,0,0-.93,4.53h-5.49a12.56,12.56,0,0,1,2.57-8.61,9.33,9.33,0,0,1,7.69-3.36,9.88,9.88,0,0,1,6.82,2.45,8.73,8.73,0,0,1,2.87,6.81,9.78,9.78,0,0,1-1.34,5.17,14.44,14.44,0,0,1-3.71,3.8l-4.36,3a16.52,16.52,0,0,0-3.8,3.76h13.37v5.17H99.57a12.41,12.41,0,0,1,2.62-7.87,32.85,32.85,0,0,1,6.3-5.38q3.27-2.33,3.91-2.92a5.85,5.85,0,0,0,2-4.31,4.71,4.71,0,0,0-1.15-3.3A3.93,3.93,0,0,0,110.18,51,3.79,3.79,0,0,0,106.63,53.29Z" transform="translate(-13.3 -17.8)"/><path class="cls-1" d="M137,46.44V76.06h-5.62V56.85h-7V52.32c4.92.09,7.62-1.87,8.13-5.88Z" transform="translate(-13.3 -17.8)"/><polygon class="cls-1" points="131.83 53.07 131.83 50.06 136.43 50.06 136.86 48.09 131.83 48.09 131.83 45.91 136.59 45.91 137.02 43.96 129.68 43.96 129.68 53.07 129.68 56.12 129.68 57.18 129.68 57.81 129.68 58.23 167.09 58.23 167.09 56.12 131.83 56.12 131.83 53.07"/><path class="cls-1" d="M152.34,71a4.71,4.71,0,0,0,1.57,1.12,5,5,0,0,0,3.93,0A4.61,4.61,0,0,0,159.41,71a5.07,5.07,0,0,0,1-1.73,7,7,0,0,0,0-4.43,5.07,5.07,0,0,0-1-1.73A4.75,4.75,0,0,0,157.84,62a5.15,5.15,0,0,0-3.93,0,4.85,4.85,0,0,0-1.57,1.12,5,5,0,0,0-1,1.73,6.82,6.82,0,0,0,0,4.43A5,5,0,0,0,152.34,71Zm1-5.31a3.57,3.57,0,0,1,.53-1.13,2.55,2.55,0,0,1,.86-.74,2.5,2.5,0,0,1,1.2-.27,2.4,2.4,0,0,1,2,1,3.39,3.39,0,0,1,.52,1.12,5.17,5.17,0,0,1,.18,1.38,5.22,5.22,0,0,1-.18,1.38,3.25,3.25,0,0,1-.52,1.11,2.49,2.49,0,0,1-.84.74,2.75,2.75,0,0,1-2.39,0,2.55,2.55,0,0,1-.86-.74,3.42,3.42,0,0,1-.53-1.12,5.15,5.15,0,0,1-.18-1.37A5.09,5.09,0,0,1,153.3,65.67Z" transform="translate(-13.3 -17.8)"/><path class="cls-1" d="M163.08,71.44a3.68,3.68,0,0,0,1.34.8,5.4,5.4,0,0,0,3.31,0,3.64,3.64,0,0,0,1.33-.8,3.75,3.75,0,0,0,.87-1.35,5.32,5.32,0,0,0,.3-1.87V61.76h-2.15v6.46a2.48,2.48,0,0,1-.55,1.75,1.88,1.88,0,0,1-1.46.57,2.23,2.23,0,0,1-.83-.15,1.66,1.66,0,0,1-.62-.42,2,2,0,0,1-.42-.71,3.3,3.3,0,0,1-.15-1V61.76h-2.16v6.46a5.32,5.32,0,0,0,.3,1.87A3.58,3.58,0,0,0,163.08,71.44Z" transform="translate(-13.3 -17.8)"/><path class="cls-1" d="M173.89,71.81V68.53h1.7l2.32,3.79h2.48l-2.58-4.1a2.73,2.73,0,0,0,1.32-1.1,3.69,3.69,0,0,0,.53-2,4,4,0,0,0-.21-1.32,2.73,2.73,0,0,0-.67-1.09,3,3,0,0,0-1.15-.72,5,5,0,0,0-1.65-.25h-4.25V72.44h2.16Zm0-8.09H176a1.63,1.63,0,0,1,1.15.33,1.51,1.51,0,0,1,.33,1.09,1.61,1.61,0,0,1-.32,1.1,1.45,1.45,0,0,1-1.1.34h-2.19Z" transform="translate(-13.3 -17.8)"/></svg>