<svg xmlns="http://www.w3.org/2000/svg" viewBox="0 0 346 208"><defs><style>.cls-1,.cls-2,.cls-3,.cls-4{fill:#fff;stroke-miterlimit:10;stroke-width:15px;}.cls-1{stroke:#d93654;}.cls-2{stroke:#9aaad9;}.cls-3{stroke:#f2c9d1;}.cls-4{stroke:#303e8c;}.cls-5{fill:#d93654;}.cls-6{fill:#303e8c;}</style></defs><g id="왼쪽_위_사각형" data-name="왼쪽 위 사각형"><polyline class="cls-1" points="33 90 33 30 163 30"/></g><g id="오른쪽_위_사각형" data-name="오른쪽 위 사각형"><polyline class="cls-2" points="187 30 312 30 312 90"/></g><g id="왼쪽_아래_사각형" data-name="왼쪽 아래 사각형"><polyline class="cls-3" points="163 184 33 184 33 124"/></g><g id="오른쪽_아래_사각형" data-name="오른쪽 아래 사각형"><polyline class="cls-4" points="312 124 312 184 182 184"/></g><g id="C"><path class="cls-5" d="M112.52,163.53A117.6,117.6,0,0,1,92,162a34.59,34.59,0,0,1-13.43-5,22.35,22.35,0,0,1-7.87-9.53A50,50,0,0,1,67,132.41a206.91,206.91,0,0,1-1-21.68,208.44,208.44,0,0,1,1-21.82,50.06,50.06,0,0,1,3.68-15.08,21.89,21.89,0,0,1,7.87-9.45A35.56,35.56,0,0,1,92,59.43a118.59,118.59,0,0,1,20.55-1.5c3.09,0,6.35.1,9.75.3s6.67.5,9.82.9,5.87.85,8.18,1.35v16.2c-2.91-.39-5.75-.7-8.55-.9s-5.38-.35-7.73-.45-4.37-.15-6.07-.15q-8.55,0-14.1.53A21.55,21.55,0,0,0,95,78.18,12,12,0,0,0,90,84a32.35,32.35,0,0,0-2.1,10.35q-.45,6.52-.45,16.42t.45,16.43A33.14,33.14,0,0,0,90,137.58a11.53,11.53,0,0,0,5,5.78,22.25,22.25,0,0,0,8.85,2.4q5.55.53,14.1.52,5.53,0,11.92-.37a108.48,108.48,0,0,0,11-1.13v16.5q-3.6.6-8.55,1.13t-10.13.82Q117,163.53,112.52,163.53Z"/></g><g id="L"><path class="cls-6" d="M210.13,162.67V59.47h21.45v85.35h48v17.85Z"/></g></svg>