<?xml version="1.0" encoding="utf-8"?>
<!-- Generator: Adobe Illustrator 13.0.0, SVG Export Plug-In . SVG Version: 6.00 Build 14948)  -->
<!DOCTYPE svg PUBLIC "-//W3C//DTD SVG 1.1//EN" "http://www.w3.org/Graphics/SVG/1.1/DTD/svg11.dtd">
<svg version="1.1" id="Layer_1" xmlns="http://www.w3.org/2000/svg" xmlns:xlink="http://www.w3.org/1999/xlink" x="0px" y="0px"
	 width="99px" height="99.154px" viewBox="0 0 99 99.154" enable-background="new 0 0 99 99.154" xml:space="preserve">
<g>
	<g>
		<path fill="#DD2D2D" d="M97.5,49.577c0-12.751-5.057-24.979-14.059-33.996C74.439,6.565,62.23,1.5,49.5,1.5
			c-12.73,0-24.939,5.065-33.941,14.081C6.557,24.598,1.5,36.826,1.5,49.577s5.057,24.979,14.059,33.996
			C24.561,92.589,36.77,97.654,49.5,97.654c12.73,0,24.939-5.065,33.941-14.081C92.443,74.556,97.5,62.328,97.5,49.577z"/>
		
			<line fill="none" stroke="#FFFFFF" stroke-width="3" stroke-linecap="round" stroke-miterlimit="3.25" x1="61.795" y1="94.671" x2="67.783" y2="93.926"/>
		
			<line fill="none" stroke="#FFFFFF" stroke-width="3" stroke-linecap="round" stroke-miterlimit="3.25" x1="61.795" y1="94.671" x2="56.26" y2="97.078"/>
		
			<line fill="none" stroke="#FFFFFF" stroke-width="3" stroke-linecap="round" stroke-miterlimit="3.25" x1="75.641" y1="13.286" x2="72.466" y2="7.469"/>
		
			<line fill="none" stroke="#FFFFFF" stroke-width="3" stroke-linecap="round" stroke-miterlimit="3.25" x1="75.641" y1="13.286" x2="82.152" y2="14.469"/>
		
			<line fill="none" stroke="#FFFFFF" stroke-width="3" stroke-linecap="round" stroke-miterlimit="3.25" x1="4.348" y1="53.539" x2="2.672" y2="59.691"/>
		
			<line fill="none" stroke="#FFFFFF" stroke-width="3" stroke-linecap="round" stroke-miterlimit="3.25" x1="4.348" y1="53.539" x2="1.63" y2="47.773"/>
		
			<line fill="none" stroke="#FFFFFF" stroke-width="3" stroke-linecap="round" stroke-miterlimit="3.25" x1="52.934" y1="94.387" x2="61.795" y2="94.671"/>
		
			<line fill="none" stroke="#FFFFFF" stroke-width="3" stroke-linecap="round" stroke-miterlimit="3.25" x1="52.934" y1="94.387" x2="44.317" y2="97.276"/>
		
			<line fill="none" stroke="#FFFFFF" stroke-width="3" stroke-linecap="round" stroke-miterlimit="3.25" x1="42.19" y1="3.676" x2="36.115" y2="3.507"/>
		
			<line fill="none" stroke="#FFFFFF" stroke-width="3" stroke-linecap="round" stroke-miterlimit="3.25" x1="42.19" y1="3.676" x2="47.911" y2="1.622"/>
		
			<line fill="none" stroke="#FFFFFF" stroke-width="3" stroke-linecap="round" stroke-miterlimit="3.25" x1="96.121" y1="40.315" x2="94.96" y2="34.448"/>
		
			<line fill="none" stroke="#FFFFFF" stroke-width="3" stroke-linecap="round" stroke-miterlimit="3.25" x1="96.121" y1="40.315" x2="97.284" y2="46.183"/>
		
			<line fill="none" stroke="#FFFFFF" stroke-width="3" stroke-linecap="round" stroke-miterlimit="3.25" x1="45.981" y1="4.383" x2="42.19" y2="3.676"/>
		
			<line fill="none" stroke="#FFFFFF" stroke-width="3" stroke-linecap="round" stroke-miterlimit="3.25" x1="45.981" y1="4.383" x2="49.5" y2="1.596"/>
		
			<line fill="none" stroke="#FFFFFF" stroke-width="3" stroke-linecap="round" stroke-miterlimit="3.25" x1="79.479" y1="21.509" x2="89.811" y2="23.653"/>
		
			<line fill="none" stroke="#FFFFFF" stroke-width="3" stroke-linecap="round" stroke-miterlimit="3.25" x1="79.479" y1="21.509" x2="75.641" y2="13.286"/>
		
			<line fill="none" stroke="#FFFFFF" stroke-width="3" stroke-linecap="round" stroke-miterlimit="3.25" x1="6.56" y1="30.751" x2="3.564" y2="35.967"/>
		
			<line fill="none" stroke="#FFFFFF" stroke-width="3" stroke-linecap="round" stroke-miterlimit="3.25" x1="6.56" y1="30.751" x2="8.353" y2="25.007"/>
		
			<line fill="none" stroke="#FFFFFF" stroke-width="3" stroke-linecap="round" stroke-miterlimit="3.25" x1="96.234" y1="49.224" x2="96.121" y2="40.315"/>
		
			<line fill="none" stroke="#FFFFFF" stroke-width="3" stroke-linecap="round" stroke-miterlimit="3.25" x1="96.234" y1="49.224" x2="96.637" y2="58.129"/>
		
			<line fill="none" stroke="#FFFFFF" stroke-width="3" stroke-linecap="round" stroke-miterlimit="3.25" x1="77.707" y1="78.913" x2="86.773" y2="79.717"/>
		
			<line fill="none" stroke="#FFFFFF" stroke-width="3" stroke-linecap="round" stroke-miterlimit="3.25" x1="77.707" y1="78.913" x2="78.169" y2="88.018"/>
		
			<line fill="none" stroke="#FFFFFF" stroke-width="3" stroke-linecap="round" stroke-miterlimit="3.25" x1="75.701" y1="67.577" x2="77.707" y2="78.913"/>
		
			<line fill="none" stroke="#FFFFFF" stroke-width="3" stroke-linecap="round" stroke-miterlimit="3.25" x1="75.701" y1="67.577" x2="93.059" y2="69.544"/>
		
			<line fill="none" stroke="#FFFFFF" stroke-width="3" stroke-linecap="round" stroke-miterlimit="3.25" x1="21.766" y1="13.651" x2="25.151" y2="8.256"/>
		
			<line fill="none" stroke="#FFFFFF" stroke-width="3" stroke-linecap="round" stroke-miterlimit="3.25" x1="21.766" y1="13.651" x2="15.702" y2="15.574"/>
		
			<line fill="none" stroke="#FFFFFF" stroke-width="3" stroke-linecap="round" stroke-miterlimit="3.25" x1="67.1" y1="18.207" x2="79.479" y2="21.509"/>
		
			<line fill="none" stroke="#FFFFFF" stroke-width="3" stroke-linecap="round" stroke-miterlimit="3.25" x1="67.1" y1="18.207" x2="61.352" y2="3.088"/>
		
			<line fill="none" stroke="#FFFFFF" stroke-width="3" stroke-linecap="round" stroke-miterlimit="3.25" x1="27.473" y1="91.605" x2="32.696" y2="94.509"/>
		
			<line fill="none" stroke="#FFFFFF" stroke-width="3" stroke-linecap="round" stroke-miterlimit="3.25" x1="27.473" y1="91.605" x2="22.12" y2="88.948"/>
		
			<line fill="none" stroke="#FFFFFF" stroke-width="3" stroke-linecap="round" stroke-miterlimit="3.25" x1="42.366" y1="82.898" x2="52.934" y2="94.387"/>
		
			<line fill="none" stroke="#FFFFFF" stroke-width="3" stroke-linecap="round" stroke-miterlimit="3.25" x1="42.366" y1="82.898" x2="27.473" y2="91.605"/>
		
			<line fill="none" stroke="#FFFFFF" stroke-width="3" stroke-linecap="round" stroke-miterlimit="3.25" x1="12.805" y1="43.385" x2="6.56" y2="30.751"/>
		
			<line fill="none" stroke="#FFFFFF" stroke-width="3" stroke-linecap="round" stroke-miterlimit="3.25" x1="12.805" y1="43.385" x2="4.348" y2="53.539"/>
		
			<line fill="none" stroke="#FFFFFF" stroke-width="3" stroke-linecap="round" stroke-miterlimit="3.25" x1="69.943" y1="54.523" x2="96.234" y2="49.224"/>
		
			<line fill="none" stroke="#FFFFFF" stroke-width="3" stroke-linecap="round" stroke-miterlimit="3.25" x1="69.943" y1="54.523" x2="75.701" y2="67.577"/>
		
			<line fill="none" stroke="#FFFFFF" stroke-width="3" stroke-linecap="round" stroke-miterlimit="3.25" x1="54.975" y1="19.815" x2="45.981" y2="4.383"/>
		
			<line fill="none" stroke="#FFFFFF" stroke-width="3" stroke-linecap="round" stroke-miterlimit="3.25" x1="54.975" y1="19.815" x2="67.1" y2="18.207"/>
		
			<line fill="none" stroke="#FFFFFF" stroke-width="3" stroke-linecap="round" stroke-miterlimit="3.25" x1="10.85" y1="75.352" x2="6.626" y2="70.981"/>
		
			<line fill="none" stroke="#FFFFFF" stroke-width="3" stroke-linecap="round" stroke-miterlimit="3.25" x1="10.85" y1="75.352" x2="13.246" y2="80.939"/>
		
			<line fill="none" stroke="#FFFFFF" stroke-width="3" stroke-linecap="round" stroke-miterlimit="3.25" x1="33.382" y1="70.38" x2="42.366" y2="82.898"/>
		
			<line fill="none" stroke="#FFFFFF" stroke-width="3" stroke-linecap="round" stroke-miterlimit="3.25" x1="33.382" y1="70.38" x2="10.85" y2="75.352"/>
		
			<line fill="none" stroke="#FFFFFF" stroke-width="3" stroke-linecap="round" stroke-miterlimit="3.25" x1="44.759" y1="46.478" x2="12.805" y2="43.385"/>
		
			<line fill="none" stroke="#FFFFFF" stroke-width="3" stroke-linecap="round" stroke-miterlimit="3.25" x1="44.759" y1="46.478" x2="21.766" y2="13.651"/>
		
			<line fill="none" stroke="#FFFFFF" stroke-width="3" stroke-linecap="round" stroke-miterlimit="3.25" x1="49.5" y1="49.577" x2="33.382" y2="70.38"/>
		
			<line fill="none" stroke="#FFFFFF" stroke-width="3" stroke-linecap="round" stroke-miterlimit="3.25" x1="49.5" y1="49.577" x2="44.759" y2="46.478"/>
		
			<line fill="none" stroke="#FFFFFF" stroke-width="3" stroke-linecap="round" stroke-miterlimit="3.25" x1="56.441" y1="42.931" x2="54.975" y2="19.815"/>
		
			<line fill="none" stroke="#FFFFFF" stroke-width="3" stroke-linecap="round" stroke-miterlimit="3.25" x1="56.441" y1="42.931" x2="69.943" y2="54.523"/>
		<path fill="none" stroke="#FFFFFF" stroke-width="3" stroke-linecap="round" stroke-miterlimit="3.25" d="M51.5,49.577"/>
		
			<line fill="none" stroke="#FFFFFF" stroke-width="3" stroke-linecap="round" stroke-miterlimit="3.25" x1="49.5" y1="49.577" x2="56.441" y2="42.931"/>
		<path fill="none" stroke="#FFFFFF" stroke-width="3" stroke-linecap="round" stroke-miterlimit="3.25" d="M97.5,49.577
			c0-12.751-5.057-24.979-14.059-33.996C74.439,6.565,62.23,1.5,49.5,1.5c-12.73,0-24.939,5.065-33.941,14.081
			C6.557,24.598,1.5,36.826,1.5,49.577s5.057,24.979,14.059,33.996C24.561,92.589,36.77,97.654,49.5,97.654
			c12.73,0,24.939-5.065,33.941-14.081C92.443,74.556,97.5,62.328,97.5,49.577z"/>
	</g>
</g>
</svg>
