<svg xmlns="http://www.w3.org/2000/svg" viewBox="0 0 234.39 58.26"><defs><style>.cls-1{fill:#0047ba;}.cls-2{fill:#f5333f;}.cls-3{fill:#fff;}.cls-4{fill:#003378;}</style></defs><g id="레이어_2" data-name="레이어 2"><path class="cls-1" d="M103.24,62a18.15,18.15,0,0,0-7.45-2.9c-2.28-.47-5.59-.29-6.51-2.94-.42-1.21,0-2.14.39-3.28,0-.11.06-.21.08-.31l0-.16a4.28,4.28,0,0,0,.07-1.25,1.59,1.59,0,0,1-1-1.43,2.7,2.7,0,0,1,.22-.93,1.11,1.11,0,0,0,.07-.16,1.59,1.59,0,0,1-.22-.83,1.37,1.37,0,0,1,.31-.93.47.47,0,0,0,.14-.32A7.82,7.82,0,0,0,89,44.39c-.2-.66-.19-1-.71-1.35a12.25,12.25,0,0,1-1-.91c-.4-.37-1.1-.89-.88-1.5s.94-1,1.4-1.31a26.48,26.48,0,0,0,2.36-1.8,5,5,0,0,0,1.44-1.66,5.77,5.77,0,0,0,.7-3.08A30.91,30.91,0,0,1,92.55,28,15.28,15.28,0,0,1,94,23.47a17.41,17.41,0,0,1,3.71-4.88l.64-.55a23.74,23.74,0,0,1,21-4.26C125,15.3,130.4,19,132.91,24.34v0l.1.24c.2.46.4.93.56,1.42a17,17,0,0,1,.79,4.18,21.41,21.41,0,0,1-.31,6.62H139c.15-.74.26-1.45.27-1.55a22.62,22.62,0,0,0,.18-4.64,21.09,21.09,0,0,0-6.56-14c-.41-.39-.84-.76-1.28-1.12A31.17,31.17,0,0,0,108,9.09a28.31,28.31,0,0,0-6,1.51,23.83,23.83,0,0,0-11.21,8.08,19,19,0,0,0-3,6.24,27.72,27.72,0,0,0-.57,6.1,14,14,0,0,1-.15,2.24s0,0,0,.06a3.9,3.9,0,0,1-1.37,2.13l-3.92,2.7c-1.21.85-2.18,2.05-.86,3.58a23,23,0,0,0,3.12,2.85,1.69,1.69,0,0,1,.41.86,2.25,2.25,0,0,1,0,1.38c0,.11-.12.18-.14.3s-.21.23-.27.35a1.89,1.89,0,0,0-.14,1.08,2.12,2.12,0,0,0,.17.58,2.19,2.19,0,0,0-.3.75A2.52,2.52,0,0,0,84.27,52c-1.16,3.39-1,7,2.47,8.91s7.48,1.63,11.06,2.79a5.2,5.2,0,0,1,3.72,3.36h5.08l0-.07a9.76,9.76,0,0,0-1.43-3.08A8.93,8.93,0,0,0,103.24,62Z" transform="translate(-13 -8.8)"/><path class="cls-1" d="M102,54.59a14.62,14.62,0,0,1-3.87-1c-1.83-1-1.41-2.62-.93-4.26l.05-.18-.1-.14A1.53,1.53,0,0,1,97,47.91a1.49,1.49,0,0,1,.13-.39l.08-.16-.06-.16a1,1,0,0,1-.07-.29.94.94,0,0,1,0-.5l0,0a.68.68,0,0,0,.17-.31c0-.05,0-.1.07-.16a2.17,2.17,0,0,0,0-1.13l0-.08A1.29,1.29,0,0,0,97,44l-.47-.46-.07-.07a8.54,8.54,0,0,1-1.21-1.35,1.16,1.16,0,0,1-.29-.82,1.77,1.77,0,0,1,.72-1.06L98,38.46a3,3,0,0,0,.91-1.68A8.11,8.11,0,0,0,99,35.57v-.35c0-.23,0-.47,0-.7v-.14a19.74,19.74,0,0,1,.29-3.56,13.39,13.39,0,0,1,1.67-4.06,13.62,13.62,0,0,1,6.26-5.29,14.52,14.52,0,0,1,3.36-1,15.69,15.69,0,0,1,13.22,4.21,14.39,14.39,0,0,1,4.37,9c0,.27,0,.55,0,.84,0,.7,0,1.48-.13,2.35h.66a23.22,23.22,0,0,0,.13-2.36h0q0-.48-.06-.9a15,15,0,0,0-4.59-9.46,16.3,16.3,0,0,0-13.75-4.38,14.62,14.62,0,0,0-3.5,1,14,14,0,0,0-8.33,9.84,20.75,20.75,0,0,0-.31,3.74v.3c0,.17,0,.34,0,.52s0,.24,0,.36a7.2,7.2,0,0,1-.08,1.12,2.29,2.29,0,0,1-.66,1.21L95.31,39.7a2.29,2.29,0,0,0-1,1.54,1.93,1.93,0,0,0,.42,1.37,9.94,9.94,0,0,0,1.31,1.45l.51.5a.93.93,0,0,1,.12.32l0,.09a1.27,1.27,0,0,1,0,.74s0,.09-.06.15l0,0a.61.61,0,0,0-.11.18,1.86,1.86,0,0,0-.12.93c0,.11,0,.21.07.32a1.81,1.81,0,0,0-.14.45,2.25,2.25,0,0,0,.27,1.56c-.5,1.78-1.32,3.51,1.27,4.93a13.76,13.76,0,0,0,4.09,1c.37.07.71.14,1,.22v-.74Z" transform="translate(-13 -8.8)"/><path class="cls-1" d="M132.36,33.34c0-.38,0-.72-.07-1.06a17.42,17.42,0,0,0-5.64-11.1,20.64,20.64,0,0,0-16.86-5.12,19.27,19.27,0,0,0-4.3,1.21,17.4,17.4,0,0,0-8.06,6.51,15.91,15.91,0,0,0-2.17,5,23.28,23.28,0,0,0-.39,4.37l0,1.38a9,9,0,0,1-.09,1.26A2.49,2.49,0,0,1,94,37.12l-2.72,2.1A2.9,2.9,0,0,0,90,41.14a2.35,2.35,0,0,0,.56,1.72,11.79,11.79,0,0,0,1.58,1.68l.64.59a1.58,1.58,0,0,1,.1.29l0,.11a1.22,1.22,0,0,1,0,.73.78.78,0,0,0-.08.18h0a.83.83,0,0,0-.17.24,2.28,2.28,0,0,0-.15,1.18,1.91,1.91,0,0,0,.06.33,2.46,2.46,0,0,0-.15.51,2.75,2.75,0,0,0,.31,1.86c-.47,1.59-1.27,3.89,2,5.83a13.63,13.63,0,0,0,4.76,1.5c.76.14,2.36.34,3.53.58v-1.1c-1.21-.23-2.65-.44-3.35-.57a12.33,12.33,0,0,1-4.31-1.35c-2.38-1.44-2-2.88-1.42-4.8l.09-.28-.17-.25a1.56,1.56,0,0,1-.27-1.19,1.28,1.28,0,0,1,.14-.4l.15-.25L93.72,48a1,1,0,0,1-.08-.29.9.9,0,0,1,0-.48.94.94,0,0,0,.23-.4,1.65,1.65,0,0,0,.09-.22,2.57,2.57,0,0,0,0-1.4l0-.1a1.62,1.62,0,0,0-.42-.85c-.24-.24-.46-.43-.66-.62a10.85,10.85,0,0,1-1.45-1.54,1.15,1.15,0,0,1-.31-.82,1.85,1.85,0,0,1,.81-1.1l2.73-2.11a3.66,3.66,0,0,0,1.17-2A8.73,8.73,0,0,0,96,34.58c0-.14,0-.27,0-.4l0-1a21.24,21.24,0,0,1,.36-4.11,15,15,0,0,1,2-4.65,16.26,16.26,0,0,1,7.53-6.07A17.81,17.81,0,0,1,110,17.24a19.51,19.51,0,0,1,15.94,4.84,16.24,16.24,0,0,1,5.26,10.33c0,.31.05.63.06,1a28.63,28.63,0,0,1-.24,3.51h1.14a30,30,0,0,0,.24-3.52Z" transform="translate(-13 -8.8)"/><path class="cls-2" d="M136.7,67.06V39.59h6V51l10.58-11.39h7.43L150.08,50.44l11.61,16.62h-7.47l-8.16-12.35-3.41,3.5v8.85Z" transform="translate(-13 -8.8)"/><path class="cls-2" d="M110.65,67.06V39.59h12.74q8.64,0,8.65,6.81a6,6,0,0,1-3.68,5.73q5,1.47,5,7a7.06,7.06,0,0,1-2.92,6.08,11,11,0,0,1-6.64,1.89Zm5.95-22.77v6.42h6q3.65,0,3.64-3.27t-4.09-3.15Zm0,10.54v7.53H123c2.94,0,4.4-1.2,4.4-3.61,0-2.62-1.43-3.92-4.28-3.92Z" transform="translate(-13 -8.8)"/><path class="cls-1" d="M173.63,44.29a9.76,9.76,0,0,0-.93,4.53h-5.49a12.56,12.56,0,0,1,2.57-8.61,9.33,9.33,0,0,1,7.69-3.36,9.88,9.88,0,0,1,6.82,2.45,8.73,8.73,0,0,1,2.87,6.81,9.78,9.78,0,0,1-1.34,5.17,14.44,14.44,0,0,1-3.71,3.8l-4.36,3.05a16.52,16.52,0,0,0-3.8,3.76h13.37v5.17H166.57a12.41,12.41,0,0,1,2.62-7.87,32.85,32.85,0,0,1,6.3-5.38q3.27-2.33,3.91-2.92a5.85,5.85,0,0,0,2-4.31,4.71,4.71,0,0,0-1.15-3.3A3.93,3.93,0,0,0,177.18,42,3.79,3.79,0,0,0,173.63,44.29Z" transform="translate(-13 -8.8)"/><path class="cls-1" d="M204,37.44V67.06h-5.62V47.85h-7V43.32c4.92.09,7.62-1.87,8.13-5.88Z" transform="translate(-13 -8.8)"/><polygon class="cls-1" points="199.13 53.07 199.13 50.06 203.73 50.06 204.16 48.09 199.13 48.09 199.13 45.91 203.89 45.91 204.32 43.96 196.98 43.96 196.98 53.07 196.98 56.12 196.98 57.18 196.98 57.81 196.98 58.23 234.39 58.23 234.39 56.12 199.13 56.12 199.13 53.07"/><path class="cls-1" d="M219.34,62a4.71,4.71,0,0,0,1.57,1.12,5,5,0,0,0,3.93,0A4.61,4.61,0,0,0,226.41,62a5.07,5.07,0,0,0,1-1.73,7,7,0,0,0,0-4.43,5.07,5.07,0,0,0-1-1.73A4.75,4.75,0,0,0,224.84,53a5.15,5.15,0,0,0-3.93,0,4.85,4.85,0,0,0-1.57,1.12,5,5,0,0,0-1,1.73,6.82,6.82,0,0,0,0,4.43A5,5,0,0,0,219.34,62Zm1-5.31a3.57,3.57,0,0,1,.53-1.13,2.55,2.55,0,0,1,.86-.74,2.5,2.5,0,0,1,1.2-.27,2.4,2.4,0,0,1,2,1,3.39,3.39,0,0,1,.52,1.12,5.17,5.17,0,0,1,.18,1.38,5.22,5.22,0,0,1-.18,1.38,3.25,3.25,0,0,1-.52,1.11,2.49,2.49,0,0,1-.84.74,2.75,2.75,0,0,1-2.39,0,2.55,2.55,0,0,1-.86-.74,3.42,3.42,0,0,1-.53-1.12,5.15,5.15,0,0,1-.18-1.37A5.09,5.09,0,0,1,220.3,56.67Z" transform="translate(-13 -8.8)"/><path class="cls-1" d="M230.08,62.44a3.68,3.68,0,0,0,1.34.8,5.4,5.4,0,0,0,3.31,0,3.64,3.64,0,0,0,1.33-.8,3.75,3.75,0,0,0,.87-1.35,5.32,5.32,0,0,0,.3-1.87V52.76h-2.15v6.46a2.48,2.48,0,0,1-.55,1.75,1.88,1.88,0,0,1-1.46.57,2.23,2.23,0,0,1-.83-.15,1.66,1.66,0,0,1-.62-.42,2,2,0,0,1-.42-.71,3.3,3.3,0,0,1-.15-1V52.76h-2.16v6.46a5.32,5.32,0,0,0,.3,1.87A3.58,3.58,0,0,0,230.08,62.44Z" transform="translate(-13 -8.8)"/><path class="cls-1" d="M240.89,62.81V59.53h1.7l2.32,3.79h2.48l-2.58-4.1a2.73,2.73,0,0,0,1.32-1.1,3.69,3.69,0,0,0,.53-2,4,4,0,0,0-.21-1.32,2.73,2.73,0,0,0-.67-1.09,3,3,0,0,0-1.15-.72,5,5,0,0,0-1.65-.25h-4.25V63.44h2.16Zm0-8.09H243a1.63,1.63,0,0,1,1.15.33,1.51,1.51,0,0,1,.33,1.09,1.61,1.61,0,0,1-.32,1.1,1.45,1.45,0,0,1-1.1.34h-2.19Z" transform="translate(-13 -8.8)"/></g><g id="레이어_3" data-name="레이어 3"><path class="cls-3" d="M13,38A29,29,0,1,0,42,9,29,29,0,0,0,13,38Z" transform="translate(-13 -8.8)"/><path class="cls-4" d="M13.85,38A28.15,28.15,0,1,1,42,66.15,28.18,28.18,0,0,1,13.85,38Z" transform="translate(-13 -8.8)"/><path class="cls-3" d="M42,58.51A20.51,20.51,0,1,1,62.51,38,20.5,20.5,0,0,1,42,58.51Z" transform="translate(-13 -8.8)"/><path class="cls-3" d="M18.27,44.66a.8.8,0,1,0,.79-.79A.8.8,0,0,0,18.27,44.66Z" transform="translate(-13 -8.8)"/><path class="cls-3" d="M66,44.77a.8.8,0,1,1-.8-.8A.8.8,0,0,1,66,44.77Z" transform="translate(-13 -8.8)"/><path class="cls-3" d="M19.4,28.56a2,2,0,0,0-1.52.08A2.29,2.29,0,0,0,16.83,30a2.24,2.24,0,0,0,.08,1.72,2.15,2.15,0,0,0,1.26,1,2,2,0,0,0,2.66-1.43,2.25,2.25,0,0,0-.1-1.72A2.28,2.28,0,0,0,19.4,28.56ZM20.57,31a1.69,1.69,0,0,1-2.31.92c-1.34-.42-1.3-1.23-1.16-1.68a1.37,1.37,0,0,1,.68-.81,2.07,2.07,0,0,1,1.56-.06,1.87,1.87,0,0,1,1.16.82A1.09,1.09,0,0,1,20.57,31Z" transform="translate(-13 -8.8)"/><path class="cls-3" d="M25,23.41l-.73-.69.14-.15.34.22a.7.7,0,0,0,.85-.17.61.61,0,0,0,.05-.87,1,1,0,0,0-.93-.19l-.3,0a1.6,1.6,0,0,1-1.48-.31A1.11,1.11,0,0,1,23,19.65a1.53,1.53,0,0,1,.69-.49l.63.61-.15.17a.65.65,0,0,0-.42-.22.6.6,0,0,0-.55.22.51.51,0,0,0,0,.76c.15.14.33.2.9.11l.18,0a1.74,1.74,0,0,1,1.61.32,1.11,1.11,0,0,1,.33,1,1.49,1.49,0,0,1-.43.78A1.51,1.51,0,0,1,25,23.41Z" transform="translate(-13 -8.8)"/><path class="cls-3" d="M59.75,24.36l.84-.58.12.18a3.3,3.3,0,0,0-.29.28.68.68,0,0,0,0,.86.6.6,0,0,0,.83.24,1,1,0,0,0,.38-.87l0-.31a1.61,1.61,0,0,1,.62-1.38,1.12,1.12,0,0,1,1.58.45,1.43,1.43,0,0,1,.33.77l-.73.5-.12-.19a.65.65,0,0,0,.3-.37.62.62,0,0,0-.1-.57.51.51,0,0,0-.74-.2c-.17.11-.26.28-.29.85v.19c0,.82-.22,1.22-.64,1.51a1.12,1.12,0,0,1-1.09.11,1.89,1.89,0,0,1-1-1.47Z" transform="translate(-13 -8.8)"/><path class="cls-3" d="M28.06,18.11c.22-.16.28-.09.44.13l.16-.11L28,17.24l-.16.12c.17.22.22.3,0,.46l-.62.47-.82-1.1.62-.45c.29-.22.42-.07.58.15l.15-.12-.5-.66-2.1,1.57.11.15c.14-.1.4-.33.63,0l1.76,2.35c.26.35.13.41-.12.59l.13.17,2.15-1.61-.55-.72-.15.11c.24.32.19.53,0,.69l-.67.51-1-1.31h0Z" transform="translate(-13 -8.8)"/><path class="cls-3" d="M56,18.33c.22.15.18.23,0,.46l.16.11.61-.92-.16-.1c-.15.23-.21.3-.43.15l-.65-.43.76-1.14.64.43c.3.2.2.37,0,.6l.16.11.46-.7-2.18-1.46-.11.16c.15.1.45.27.24.59L54,18.62c-.24.37-.34.26-.6.09l-.11.17,2.23,1.5.5-.76-.16-.11c-.22.33-.43.37-.66.21l-.7-.47.91-1.35h0Z" transform="translate(-13 -8.8)"/><path class="cls-3" d="M30.33,14.93c-.12-.23,0-.3.28-.44l-.09-.17L29,15.08l.08.17s.38-.27.53,0L31.1,18.1c.12.23,0,.3-.29.44l.09.18,1.6-.83-.09-.16c-.24.12-.5.29-.64,0Z" transform="translate(-13 -8.8)"/><path class="cls-3" d="M38.92,14l-.33-1.63c-.05-.26.08-.29.39-.35l0-.19-1.43.29,0,.18s.44-.16.5.18c0,.06.35,1.72.35,1.72a1.74,1.74,0,0,1,0,1.31,1,1,0,0,1-.63.42,1,1,0,0,1-.67-.09c-.23-.12-.48-.35-.64-1.17l-.36-1.79c0-.26.07-.29.39-.36l0-.19-1.64.33,0,.19s.44-.15.5.18c0,.07.37,1.82.37,1.82a1.84,1.84,0,0,0,.76,1.31,1.79,1.79,0,0,0,1.26.14,1.61,1.61,0,0,0,1-.61A2,2,0,0,0,38.92,14Z" transform="translate(-13 -8.8)"/><path class="cls-3" d="M48.4,12.94c.05-.26.18-.24.49-.16l0-.19-1.63-.38,0,.19s.46,0,.38.37c0,.16-.71,3.08-.71,3.08-.06.26-.19.23-.5.16l0,.19,1.75.4,0-.18c-.27-.06-.58-.1-.51-.4Z" transform="translate(-13 -8.8)"/><path class="cls-3" d="M65.4,27c.24-.11.3,0,.44.29l.17-.09-.73-1.49-.17.08s.26.38,0,.53l-2.83,1.4c-.24.11-.3,0-.45-.3l-.17.09.79,1.61.17-.08c-.12-.24-.29-.5,0-.64Z" transform="translate(-13 -8.8)"/><path class="cls-3" d="M66.76,29l-.83.12.06.21c.28,0,.47-.06.58.29l.22.77-3.13.93c-.25.07-.29-.06-.38-.37l-.19.06.51,1.72.18-.05c-.07-.26-.2-.55.1-.64s2.73-.8,3.13-.92c.17.58.21.7.23.77.1.35-.07.44-.33.56l.07.2.76-.34Z" transform="translate(-13 -8.8)"/><path class="cls-3" d="M61.05,20.17a1.76,1.76,0,0,0-.55-.87l-1.12-1.11-.13.14s.37.27.13.51l-2.22,2.25c-.19.19-.29.1-.52-.13l-.13.14,1.28,1.26.13-.13c-.19-.19-.44-.38-.22-.61l.84-.85.34.34-.14.92a2.44,2.44,0,0,0,0,1.07,1,1,0,0,0,.34.49l.38.39.13-.13-.09-.11a1,1,0,0,1-.16-.65c0-.39.06-.88.13-1.51,0,0,0-.19,0-.25A1.53,1.53,0,0,0,60.79,21,1,1,0,0,0,61.05,20.17Zm-.95.49a.9.9,0,0,1-.75.33c-.1,0-.16,0-.3-.19l-.27-.26L60,19.28l.18.18A.8.8,0,0,1,60.1,20.66Z" transform="translate(-13 -8.8)"/><path class="cls-3" d="M18.47,35.36a1.31,1.31,0,0,1-.5-.12,16.55,16.55,0,0,1-1.57-1.15.74.74,0,0,1-.22-.29.63.63,0,0,1,0-.21v-.15l-.19,0-.12,1.34.2,0s0-.1,0-.14a.08.08,0,0,1,.09-.07.68.68,0,0,1,.25.1l1.29.87-1.56.71a.53.53,0,0,1-.17,0,.05.05,0,0,1,0,0V36.1l-.18,0-.13,1.52h.18a.71.71,0,0,1,.1-.33,1.06,1.06,0,0,1,.4-.31c.29-.17,1.51-.76,1.59-.78a1,1,0,0,1,.54-.07l.89.08c.33,0,.33.22.3.48h.18l.16-1.78h-.17c0,.29,0,.57-.42.54Z" transform="translate(-13 -8.8)"/><path class="cls-3" d="M65.56,36.19a1.32,1.32,0,0,1,.52,0,16.36,16.36,0,0,1,1.75.84.72.72,0,0,1,.27.24.5.5,0,0,1,.08.21s0,.14,0,.14l.19,0-.13-1.34-.2,0s0,.1,0,.14a.07.07,0,0,1-.07.08.66.66,0,0,1-.26,0l-1.44-.62s1.29-.92,1.41-1a.71.71,0,0,1,.15-.08.05.05,0,0,1,0,0v0s0,.13,0,.13l.19,0L68,33.45l-.18,0a.75.75,0,0,1,0,.34,1.25,1.25,0,0,1-.34.39c-.26.21-1.34,1-1.41,1.06a1.06,1.06,0,0,1-.52.17l-.88.09c-.34,0-.37-.15-.4-.42l-.18,0,.18,1.77.17,0c0-.29-.08-.57.31-.61Z" transform="translate(-13 -8.8)"/><path class="cls-3" d="M23.94,24.88l-.14.23L19.88,26l1.91,1.18c.41.25.55-.07.69-.29l.16.1-.79,1.28-.17-.1c.13-.2.28-.4-.11-.63l-2.94-1.82.13-.22,4-.87-2-1.23c-.36-.22-.51.07-.62.25l-.16-.1.73-1.19.16.11c-.11.18-.25.36.11.58Z" transform="translate(-13 -8.8)"/><path class="cls-3" d="M44.6,15.92h-.27l-2.63-3-.14,2.24c0,.48.31.45.58.47v.19l-1.51-.09v-.19c.24,0,.48,0,.51-.4s.21-3.46.21-3.46l.25,0,2.65,3.09s.12-1.92.14-2.33-.3-.42-.51-.43v-.19l1.39.08v.2c-.22,0-.44-.05-.46.36S44.6,15.92,44.6,15.92Z" transform="translate(-13 -8.8)"/><path class="cls-3" d="M54.33,14.9l.05-.18-1.22-.54-.08.18.15.06c.05,0,.08.06.07.1a.93.93,0,0,1-.15.24L52,15.9l-.74.73c0-.11.08-1.57.11-2.2l0-.56s0-.11,0-.15a.12.12,0,0,1,.13,0l.14.06.08-.18L50.39,13l-.08.16a.69.69,0,0,1,.27.19.86.86,0,0,1,.08.44l-.06,3.8.15.07,2.16-2,.78-.7a.53.53,0,0,1,.51-.11Z" transform="translate(-13 -8.8)"/><path class="cls-3" d="M43.33,60.12v1.24H43V60.12h-.84v.09h0c.08,0,.17.15.17.3V63.2H40.56V60.79h1.17v-.56H39.67v.1h0c.08,0,.16.14.16.29v3.15h2.49v.9H43V61.92h.34v2.75h.73V60.12h-.73Z" transform="translate(-13 -8.8)"/><path class="cls-3" d="M63,53.23,60.23,50.9h0l-2.29,2.76.44.37,1.82-2.21,2.37,2c-.2.24-.35.44-.35.44L61,53.2l-.44.54,1.23,1-.24.29-1.24-1-.51.62.07.07h0c0-.07.21,0,.33.06l.93.77-.52.63.43.36,2.73-3.29-.44-.36Z" transform="translate(-13 -8.8)"/><path class="cls-3" d="M33.36,58.39l-1.9,4.15.66.3L34,58.7h0Z" transform="translate(-13 -8.8)"/><path class="cls-3" d="M32.35,57.93l0,.09h0c.08,0,.09.2,0,.34l-.35.77-.69-.32-.24.52.69.32L30.6,62.14l.58.27,1.91-4.14h0Z" transform="translate(-13 -8.8)"/><path class="cls-3" d="M30.45,59.2l0,0h0a3.76,3.76,0,0,0,1.15-1.44h0l-1-.45,0,.09h0s.19.15,0,.48h0a3.46,3.46,0,0,1-2.07,1.65s.16.4.17.44h0a3.84,3.84,0,0,0,1.21-.46h0l0,0a4.74,4.74,0,0,1,.41,1.37l.6-.34A6.89,6.89,0,0,0,30.45,59.2Z" transform="translate(-13 -8.8)"/><path class="cls-3" d="M51.43,62l2.76-1.32.42.88.66-.31-.67-1.4-3.42,1.64S51.41,61.92,51.43,62Z" transform="translate(-13 -8.8)"/><path class="cls-3" d="M53.3,57.1l-.81.39,0,.09h0c.07,0,.21.06.27.19s.94,2,1,2l.65-.31-.36-.75.65-.31-.22-.47-.65.32Z" transform="translate(-13 -8.8)"/><path class="cls-3" d="M50.3,60.24a1.31,1.31,0,0,0,2.34-1.13,1.09,1.09,0,0,0-.71-.56l.49-.24-.24-.51-.93.44s-.14-.31-.16-.34h0l-.81.38,0,.09h0c.07,0,.19,0,.26.16v0l-1,.47s.23.47.24.51l.45-.21A1.07,1.07,0,0,0,50.3,60.24Zm1.46,0a.67.67,0,0,1-.58-1.2.67.67,0,0,1,.58,1.2Z" transform="translate(-13 -8.8)"/><path class="cls-3" d="M22.27,53.55h0l-.59-.68-.07.07h0c.05.06,0,.22-.12.32l-.81.71L23,56.6l.43-.37-1.81-2.08Z" transform="translate(-13 -8.8)"/><path class="cls-3" d="M23.66,53.71l.61.71-.89.78s.46.51.48.55l2.48-2.17-.59-.67-.07.06h0c.05.07,0,.22-.12.32l-.13.12-.68-.78a1.37,1.37,0,0,0-.35-1.07,1.26,1.26,0,1,0-1.9,1.65A1.41,1.41,0,0,0,23.66,53.71Zm1.34.07-.3.26-.46-.53.11-.09a.81.81,0,0,0,.18-.19Zm-2-1.91a.68.68,0,1,1,.89,1,.72.72,0,0,1-1,0A.71.71,0,0,1,23,51.87Z" transform="translate(-13 -8.8)"/><path class="cls-4" d="M42,28.15a3,3,0,1,0,3,3A3,3,0,0,0,42,28.15Z" transform="translate(-13 -8.8)"/><path class="cls-4" d="M34.72,52.79A29.83,29.83,0,0,0,42,57.39a30.22,30.22,0,0,0,7.28-4.6L42,45.49Z" transform="translate(-13 -8.8)"/><path class="cls-4" d="M56.82,35.42V25.36s-8.58.28-14.82-4.53c-6.25,4.81-14.83,4.53-14.83,4.53V35.42a28.62,28.62,0,0,0,.32,4.52,80.36,80.36,0,0,1,29,0A27.28,27.28,0,0,0,56.82,35.42ZM42,37.05a5.89,5.89,0,1,1,5.9-5.89A5.9,5.9,0,0,1,42,37.05Z" transform="translate(-13 -8.8)"/><path class="cls-4" d="M27.64,40.79c.07.31.14.62.22.93a21.4,21.4,0,0,0,4.48,8.69L42,40.74l9.65,9.67a21.28,21.28,0,0,0,4.48-8.69c.08-.31.16-.62.22-.93a79.31,79.31,0,0,0-28.71,0Z" transform="translate(-13 -8.8)"/><path class="cls-3" d="M31.93,33.52h1.39a.09.09,0,0,0,.09-.09V30.58a.09.09,0,0,0-.09-.08H32.2a.34.34,0,0,0-.35.35v2.58A.08.08,0,0,0,31.93,33.52Z" transform="translate(-13 -8.8)"/><path class="cls-3" d="M30,33.52H31.4a.08.08,0,0,0,.08-.09V30.85a.34.34,0,0,0-.34-.35H30a.08.08,0,0,0-.08.08v2.85A.08.08,0,0,0,30,33.52Z" transform="translate(-13 -8.8)"/><path class="cls-3" d="M34.05,31h-.29v2.83H32v0a.34.34,0,0,1-.67,0v0H29.57V31h-.29a.09.09,0,0,0-.09.09v3a.09.09,0,0,0,.09.09H31a.71.71,0,0,0,1.25,0h1.76a.09.09,0,0,0,.09-.09v-3A.09.09,0,0,0,34.05,31Z" transform="translate(-13 -8.8)"/><path class="cls-3" d="M52.75,33.2H51.61a.1.1,0,0,0-.1.11l.38,2.39a.19.19,0,0,0,.19.17h.2a.21.21,0,0,0,.2-.17l.37-2.39A.1.1,0,0,0,52.75,33.2Z" transform="translate(-13 -8.8)"/><path class="cls-3" d="M52.92,32.15c.29-.25,1-1,.91-1.43s-1.36-1.11-1.43-1.62a1.38,1.38,0,0,1,.16-.77s0-.06-.07,0-1.07.8-1.08,1.34a.94.94,0,0,0,.41.66,7.7,7.7,0,0,1,.69.54.71.71,0,0,1,.23.34c.11.29-.19.75-.37,1H52a2,2,0,0,0,.42-.73c.17-.65-1.44-.81-1.2-1.78h0s0-.05-.07,0-.64.61-.64,1,.74.7,1.08,1.19a.34.34,0,0,1,0,.31h-.66s-.15,0-.09.14l.18.55a.14.14,0,0,0,.14.07h2.12a.16.16,0,0,0,.14-.07l.18-.56c0-.14-.1-.13-.1-.13Z" transform="translate(-13 -8.8)"/><path class="cls-3" d="M39.12,51.17c-.1.08-.65.43-.66.44a.09.09,0,0,0-.06.08.07.07,0,0,0,.07.07h.05l.09,0a1.33,1.33,0,0,1,.23-.1v1.56c0,.09,0,.1-.09.12h-.22s-.06,0-.06.08,0,.06.09.06h1c.08,0,.09,0,.09-.06s0-.08-.06-.08h-.19c-.06,0-.07,0-.08-.12v-2c0-.09,0-.1-.07-.1Z" transform="translate(-13 -8.8)"/><path class="cls-3" d="M40.4,52.85a.6.6,0,0,1,.3-.51c.24.14.45.27.45.53a.37.37,0,0,1-.37.4A.39.39,0,0,1,40.4,52.85Zm-.3-1.16a.62.62,0,0,0,.38.53.76.76,0,0,0-.5.65h0c0,.38.31.61.78.61a.73.73,0,0,0,.81-.68.77.77,0,0,0-.48-.65.62.62,0,0,0,.38-.54c0-.3-.26-.49-.64-.49C40.29,51.12,40.1,51.47,40.1,51.69Zm.39-.06a.3.3,0,1,1,.59,0,.4.4,0,0,1-.25.39C40.58,51.88,40.49,51.78,40.49,51.63Z" transform="translate(-13 -8.8)"/><path class="cls-3" d="M42.41,52.85a.6.6,0,0,1,.3-.51c.24.14.45.27.45.53a.37.37,0,0,1-.37.4A.4.4,0,0,1,42.41,52.85Zm-.3-1.16a.62.62,0,0,0,.38.53.76.76,0,0,0-.5.65c0,.38.31.61.78.61a.73.73,0,0,0,.81-.68.77.77,0,0,0-.48-.65.62.62,0,0,0,.38-.54c0-.3-.25-.49-.64-.49C42.3,51.12,42.11,51.47,42.11,51.69Zm.39-.06a.28.28,0,0,1,.31-.3.28.28,0,0,1,.28.31.4.4,0,0,1-.25.39C42.59,51.88,42.5,51.78,42.5,51.63Z" transform="translate(-13 -8.8)"/><path class="cls-3" d="M45.21,51.16H44.3a.08.08,0,0,0-.09.08l-.07.76a.1.1,0,0,0,.09.11c.2,0,.7.19.7.65a.44.44,0,0,1-.44.49.32.32,0,0,1-.36-.35c0-.08,0-.09-.06-.09s-.07.06-.08.08v.38a.14.14,0,0,0,.07.15h0a.76.76,0,0,0,.29,0,.88.88,0,0,0,1-.86c0-.49-.49-.75-1-.84a2.4,2.4,0,0,1,0-.28h.49c.21,0,.21.06.21.11s.06.08.07.08.07,0,.07-.06l0-.38s0-.1-.07-.1Z" transform="translate(-13 -8.8)"/><path class="cls-3" d="M32.34,50.41a23.23,23.23,0,0,0,2.38,2.38L42,45.49l7.28,7.3a23.09,23.09,0,0,0,2.37-2.38L42,40.74Z" transform="translate(-13 -8.8)"/><path class="cls-3" d="M42,38.62a80.48,80.48,0,0,0-14.51,1.32l.15.85a79.31,79.31,0,0,1,28.71,0c.06-.28.11-.57.15-.85A80.37,80.37,0,0,0,42,38.62Z" transform="translate(-13 -8.8)"/><path class="cls-3" d="M47.9,31.16A5.9,5.9,0,1,0,42,37.05,5.89,5.89,0,0,0,47.9,31.16Zm-5.91,3a3,3,0,1,1,3-3A3,3,0,0,1,42,34.18Z" transform="translate(-13 -8.8)"/></g></svg>