<svg id="레이어_1" data-name="레이어 1" xmlns="http://www.w3.org/2000/svg" viewBox="0 0 53.01 53.01"><defs><style>.cls-1{fill:#fff;}.cls-2{fill:#003378;}</style></defs><path class="cls-1" d="M3.73,29.5A26.51,26.51,0,1,0,30.24,3,26.53,26.53,0,0,0,3.73,29.5Z" transform="translate(-3.73 -3)"/><path class="cls-2" d="M4.52,29.49A25.72,25.72,0,1,1,30.24,55.22,25.74,25.74,0,0,1,4.52,29.49Z" transform="translate(-3.73 -3)"/><path class="cls-1" d="M30.24,48.24A18.74,18.74,0,1,1,49,29.5,18.75,18.75,0,0,1,30.24,48.24Z" transform="translate(-3.73 -3)"/><path class="cls-1" d="M8.56,35.59a.72.72,0,1,0,.72-.72A.72.72,0,0,0,8.56,35.59Z" transform="translate(-3.73 -3)"/><path class="cls-1" d="M52.19,35.69a.74.74,0,1,1-.73-.74A.73.73,0,0,1,52.19,35.69Z" transform="translate(-3.73 -3)"/><path class="cls-1" d="M9.59,20.87A1.79,1.79,0,0,0,8.2,21a2.09,2.09,0,0,0-1,1.26,2.05,2.05,0,0,0,.08,1.57,2,2,0,0,0,1.15.95,1.87,1.87,0,0,0,2.43-1.31,1.93,1.93,0,0,0-1.3-2.55Zm1.06,2.26A1.54,1.54,0,0,1,8.54,24c-1.22-.38-1.18-1.13-1-1.54a1.18,1.18,0,0,1,.62-.73,1.86,1.86,0,0,1,1.42-.06,1.68,1.68,0,0,1,1.06.75A.94.94,0,0,1,10.65,23.13Z" transform="translate(-3.73 -3)"/><path class="cls-1" d="M14.68,16.17,14,15.53l.13-.13.31.2a.63.63,0,0,0,.77-.16.55.55,0,0,0,0-.79.87.87,0,0,0-.84-.17l-.28,0a1.52,1.52,0,0,1-1.36-.29,1,1,0,0,1,.11-1.5,1.44,1.44,0,0,1,.62-.45l.58.56L14,13a.58.58,0,0,0-.38-.2.59.59,0,0,0-.5.2.47.47,0,0,0,0,.7c.14.13.3.18.82.1l.17,0c.74-.11,1.13,0,1.47.29a1,1,0,0,1,.3.95,1.33,1.33,0,0,1-.39.71A1.38,1.38,0,0,1,14.68,16.17Z" transform="translate(-3.73 -3)"/><path class="cls-1" d="M46.46,17l.77-.52.11.16s-.21.19-.26.25a.62.62,0,0,0,0,.79.53.53,0,0,0,.75.22.86.86,0,0,0,.35-.79l0-.29a1.46,1.46,0,0,1,.56-1.26A1,1,0,0,1,50.2,16a1.31,1.31,0,0,1,.3.71l-.66.45L49.72,17a.58.58,0,0,0,.28-.34.57.57,0,0,0-.09-.52.48.48,0,0,0-.68-.19c-.15.11-.24.26-.27.78v.17c-.05.76-.2,1.12-.59,1.38a1,1,0,0,1-1,.11A1.71,1.71,0,0,1,46.46,17Z" transform="translate(-3.73 -3)"/><path class="cls-1" d="M17.5,11.32c.2-.14.25-.08.41.12l.14-.1-.61-.81-.14.1c.16.21.2.28,0,.43l-.57.43-.75-1,.57-.42c.26-.2.38-.07.53.13l.14-.1-.46-.61-1.92,1.44.1.14c.13-.1.37-.31.58,0l1.61,2.15c.23.32.12.37-.11.54l.11.15,2-1.47-.5-.66-.14.1c.22.3.18.48,0,.64l-.62.46-.89-1.19h0Z" transform="translate(-3.73 -3)"/><path class="cls-1" d="M43.07,11.53c.21.13.17.2,0,.42l.15.1.56-.84-.15-.1c-.14.21-.19.28-.39.14l-.6-.4.69-1,.59.39c.27.18.19.34.05.55l.14.09.42-.63-2-1.33-.1.14c.13.09.41.25.22.53l-1.49,2.23c-.22.33-.31.24-.55.08l-.1.16,2,1.37.45-.69-.14-.11c-.2.31-.4.34-.61.19l-.63-.42.83-1.24h0Z" transform="translate(-3.73 -3)"/><path class="cls-1" d="M19.57,8.42c-.11-.21,0-.27.26-.41l-.08-.15-1.36.69.08.16s.35-.25.49,0l1.32,2.57c.11.21,0,.28-.26.41l.08.16,1.46-.76L21.48,11c-.22.11-.46.27-.58,0S19.57,8.42,19.57,8.42Z" transform="translate(-3.73 -3)"/><path class="cls-1" d="M27.43,7.52,27.13,6c-.05-.23.06-.26.35-.32l0-.17-1.3.26,0,.17s.4-.15.46.16c0,.06.32,1.57.32,1.57a1.65,1.65,0,0,1,0,1.2.92.92,0,0,1-.59.38.88.88,0,0,1-.6-.07c-.22-.12-.44-.33-.59-1.07l-.33-1.65c-.05-.23.07-.26.36-.32l0-.17-1.49.3,0,.17s.4-.14.46.16c0,.07.34,1.67.34,1.67a1.65,1.65,0,0,0,.69,1.2,1.63,1.63,0,0,0,1.15.12,1.49,1.49,0,0,0,.94-.56A1.85,1.85,0,0,0,27.43,7.52Z" transform="translate(-3.73 -3)"/><path class="cls-1" d="M36.09,6.6c0-.24.16-.22.45-.15l0-.17-1.49-.35,0,.17s.42,0,.35.34c0,.15-.65,2.82-.65,2.82-.06.23-.18.21-.47.14l0,.17,1.6.37,0-.16c-.25-.06-.53-.09-.47-.37S36.09,6.6,36.09,6.6Z" transform="translate(-3.73 -3)"/><path class="cls-1" d="M51.63,19.49c.21-.11.27,0,.4.26l.16-.08-.68-1.37-.15.08s.24.35,0,.48l-2.59,1.28c-.22.11-.28,0-.41-.27l-.16.08.73,1.48.15-.08c-.11-.22-.26-.46,0-.59Z" transform="translate(-3.73 -3)"/><path class="cls-1" d="M52.87,21.25l-.76.11.06.19c.25,0,.43-.05.52.27,0,.05.06.17.21.7L50,23.36c-.23.07-.27-.05-.35-.33l-.17,0L50,24.66l.17-.05c-.07-.24-.18-.5.09-.58l2.86-.84c.16.52.19.64.21.7.09.32-.07.4-.3.51l.06.19.7-.32Z" transform="translate(-3.73 -3)"/><path class="cls-1" d="M47.65,13.2a1.56,1.56,0,0,0-.5-.79l-1-1-.12.12s.34.25.12.47l-2,2.06c-.17.17-.27.09-.48-.13l-.12.13,1.17,1.16.12-.12c-.18-.18-.4-.35-.2-.56l.77-.77.31.31-.13.83a2.41,2.41,0,0,0,0,1,.92.92,0,0,0,.31.44l.35.35.11-.11-.08-.1a1,1,0,0,1-.14-.6,12.1,12.1,0,0,1,.12-1.37s0-.18,0-.23a1.39,1.39,0,0,0,1.21-.34A.84.84,0,0,0,47.65,13.2Zm-.87.45a.8.8,0,0,1-.68.31.51.51,0,0,1-.28-.18l-.24-.24,1.13-1.14.16.16A.72.72,0,0,1,46.78,13.65Z" transform="translate(-3.73 -3)"/><path class="cls-1" d="M8.74,27.09A1.29,1.29,0,0,1,8.28,27a17.44,17.44,0,0,1-1.43-1.05.76.76,0,0,1-.21-.27.34.34,0,0,1,0-.19v-.14l-.17,0-.11,1.23h.17s0-.09,0-.12a.09.09,0,0,1,.09-.06.49.49,0,0,1,.22.09c.07,0,1.19.79,1.19.79s-1.32.61-1.43.65l-.15,0a.05.05,0,0,1-.05,0v0a.39.39,0,0,1,0-.11l-.17,0L6.1,29.13l.17,0a.64.64,0,0,1,.09-.3.93.93,0,0,1,.36-.29c.27-.15,1.38-.69,1.46-.72a1,1,0,0,1,.49-.06l.81.08c.31,0,.3.19.28.43h.17l.14-1.62-.15,0c0,.27,0,.53-.39.5Z" transform="translate(-3.73 -3)"/><path class="cls-1" d="M51.77,27.84a1.08,1.08,0,0,1,.47,0,14.62,14.62,0,0,1,1.61.76.7.7,0,0,1,.25.22.64.64,0,0,1,.07.19s0,.13,0,.13l.17,0-.11-1.22-.18,0s0,.09,0,.12a.08.08,0,0,1-.07.08.85.85,0,0,1-.24,0l-1.31-.56s1.17-.85,1.29-.91a.33.33,0,0,1,.13-.07.05.05,0,0,1,.05,0v0a1,1,0,0,1,0,.12l.17,0L54,25.34l-.17,0a.78.78,0,0,1,0,.31,1.12,1.12,0,0,1-.3.35c-.24.2-1.23.94-1.3,1a1,1,0,0,1-.48.15l-.8.08c-.31,0-.34-.14-.36-.38l-.16,0,.16,1.63.15,0c0-.27-.07-.52.29-.56Z" transform="translate(-3.73 -3)"/><path class="cls-1" d="M13.74,17.51l-.13.21L10,18.53l1.74,1.08c.38.23.5-.06.63-.26l.15.09-.73,1.17-.15-.09c.12-.19.26-.37-.1-.58L8.88,18.28l.12-.2,3.64-.8-1.82-1.12c-.33-.2-.47.07-.56.23l-.16-.1.67-1.08.16.09c-.11.18-.24.34.09.53Z" transform="translate(-3.73 -3)"/><path class="cls-1" d="M32.62,9.32h-.25L30,6.53l-.12,2.05c0,.44.28.42.53.43v.18L29,9.1V8.93c.22,0,.44,0,.46-.37s.19-3.16.19-3.16l.24,0L32.3,8.24s.1-1.75.13-2.13-.28-.38-.47-.39V5.54l1.27.08V5.8c-.2,0-.4,0-.42.33S32.62,9.32,32.62,9.32Z" transform="translate(-3.73 -3)"/><path class="cls-1" d="M41.51,8.39l.05-.17-1.12-.49-.07.16L40.5,8s.08.06.07.1a1,1,0,0,1-.14.21l-1,1-.67.67c0-.1.07-1.43.1-2l0-.52a.24.24,0,0,1,0-.13.12.12,0,0,1,.12,0l.13.06.07-.17-1.29-.56-.07.15a.73.73,0,0,1,.25.18.73.73,0,0,1,.06.4l0,3.47.14.06,2-1.81.71-.65a.48.48,0,0,1,.47-.09Z" transform="translate(-3.73 -3)"/><path class="cls-1" d="M31.45,49.71v1.14h-.3V49.71h-.77v.09h0c.07,0,.15.13.15.27v2.46h-1.6v-2.2H30v-.52H28.11v.09h0c.08,0,.15.13.15.28v2.87h2.27v.83h.62V51.36h.3v2.52h.67V49.71h-.67Z" transform="translate(-3.73 -3)"/><path class="cls-1" d="M49.47,43.42l-2.56-2.13h0l-2.09,2.53.4.33,1.67-2L49,43.93l-.32.4-1.13-.94-.41.49,1.13.94-.22.26S47,44.17,47,44.15l-.47.57.07.06h0c0-.06.2,0,.3.06l.85.69-.47.58s.36.31.4.33l2.49-3-.4-.34Z" transform="translate(-3.73 -3)"/><path class="cls-1" d="M22.35,48.14,20.6,51.93l.61.27s1.73-3.74,1.74-3.78h0Z" transform="translate(-3.73 -3)"/><path class="cls-1" d="M21.43,47.71a.41.41,0,0,0-.05.09h0c.08,0,.08.18,0,.31l-.32.7-.64-.29s-.2.44-.22.47l.64.29-1.05,2.28.53.25L22.1,48h0Z" transform="translate(-3.73 -3)"/><path class="cls-1" d="M19.68,48.88l0,0h0a3.49,3.49,0,0,0,1.06-1.32h0l-.88-.41,0,.09h0s.17.13,0,.44h0A3.12,3.12,0,0,1,18,49.14l.16.4h0a3.39,3.39,0,0,0,1.11-.42h0v0a4,4,0,0,1,.38,1.25l.55-.31A5.37,5.37,0,0,0,19.68,48.88Z" transform="translate(-3.73 -3)"/><path class="cls-1" d="M38.86,51.4l2.52-1.21.39.81.6-.29-.61-1.28-3.13,1.5Z" transform="translate(-3.73 -3)"/><path class="cls-1" d="M40.57,47l-.74.36a.3.3,0,0,0,0,.08h0c.07,0,.19,0,.25.18L41,49.4l.6-.29-.33-.68.6-.29s-.19-.39-.21-.42l-.59.28Z" transform="translate(-3.73 -3)"/><path class="cls-1" d="M37.83,49.83a1.2,1.2,0,0,0,2.14-1,1,1,0,0,0-.65-.52l.45-.22s-.21-.43-.23-.46l-.84.4-.15-.32h0l-.74.35,0,.09h0c.06,0,.17,0,.23.15l0,0-.91.43.23.47.41-.19A1,1,0,0,0,37.83,49.83Zm1.33,0a.6.6,0,0,1-.79-.29.58.58,0,1,1,.79.29Z" transform="translate(-3.73 -3)"/><path class="cls-1" d="M12.21,43.71h0l-.54-.62-.07.06h0c.05.06,0,.2-.1.29s-.72.62-.75.66,2.07,2.37,2.1,2.4l.39-.34-1.65-1.9Z" transform="translate(-3.73 -3)"/><path class="cls-1" d="M13.48,43.86l.56.64-.81.72.43.5,2.27-2-.54-.62s-.05,0-.06.06h0c0,.06,0,.2-.11.3l-.12.1-.62-.71a1.32,1.32,0,0,0-.32-1,1.16,1.16,0,1,0-1.74,1.51A1.27,1.27,0,0,0,13.48,43.86Zm1.23.06-.28.24L14,43.67l.1-.08a.85.85,0,0,0,.16-.17Zm-1.83-1.74a.64.64,0,0,1,.91,0,.63.63,0,0,1-.09.9.62.62,0,1,1-.82-.93Z" transform="translate(-3.73 -3)"/><path class="cls-2" d="M30.24,20.5A2.76,2.76,0,1,0,33,23.25,2.75,2.75,0,0,0,30.24,20.5Z" transform="translate(-3.73 -3)"/><path class="cls-2" d="M23.58,43a27.78,27.78,0,0,0,6.66,4.2A27.78,27.78,0,0,0,36.9,43l-6.66-6.67Z" transform="translate(-3.73 -3)"/><path class="cls-2" d="M43.79,27.14V18S36,18.2,30.24,13.81C24.53,18.2,16.69,18,16.69,18v9.19A25.67,25.67,0,0,0,17,31.27a73.86,73.86,0,0,1,26.52,0A25.67,25.67,0,0,0,43.79,27.14ZM30.24,28.63a5.38,5.38,0,1,1,5.39-5.38A5.38,5.38,0,0,1,30.24,28.63Z" transform="translate(-3.73 -3)"/><path class="cls-2" d="M17.12,32.05c.06.28.13.57.2.85a19.59,19.59,0,0,0,4.09,7.94L30.24,32l8.82,8.84a19.63,19.63,0,0,0,4.1-7.94c.07-.28.14-.57.19-.85a72.27,72.27,0,0,0-26.23,0Z" transform="translate(-3.73 -3)"/><path class="cls-1" d="M21,25.4h1.27a.08.08,0,0,0,.08-.08v-2.6a.08.08,0,0,0-.08-.07h-1A.31.31,0,0,0,21,23v2.36A.08.08,0,0,0,21,25.4Z" transform="translate(-3.73 -3)"/><path class="cls-1" d="M19.28,25.4h1.27a.07.07,0,0,0,.08-.08V23a.31.31,0,0,0-.32-.31h-1a.07.07,0,0,0-.07.07v2.6A.07.07,0,0,0,19.28,25.4Z" transform="translate(-3.73 -3)"/><path class="cls-1" d="M23,23.1h-.27v2.58H21.1v0a.31.31,0,0,1-.61,0v0H18.88V23.1h-.26a.07.07,0,0,0-.08.07v2.74a.07.07,0,0,0,.08.08h1.6a.68.68,0,0,0,.58.34.66.66,0,0,0,.57-.34H23a.08.08,0,0,0,.08-.08V23.17A.08.08,0,0,0,23,23.1Z" transform="translate(-3.73 -3)"/><path class="cls-1" d="M40.07,25.12H39c-.06,0-.1,0-.09.09l.34,2.19a.2.2,0,0,0,.19.16h.17a.2.2,0,0,0,.19-.16l.34-2.19C40.17,25.16,40.12,25.12,40.07,25.12Z" transform="translate(-3.73 -3)"/><path class="cls-1" d="M40.22,24.16c.27-.24.9-.93.83-1.31s-1.24-1-1.31-1.48a1.19,1.19,0,0,1,.16-.71s0-.05-.08,0-1,.72-1,1.22a.87.87,0,0,0,.37.6c.19.16.44.3.64.5a.68.68,0,0,1,.21.3c.09.27-.17.69-.34.89h-.38a1.79,1.79,0,0,0,.38-.67c.16-.59-1.31-.74-1.09-1.63h0s0-.05-.06,0-.59.56-.59.95.67.64,1,1.08a.33.33,0,0,1,0,.29h-.6s-.14,0-.09.12l.17.5s0,.07.13.07h1.93a.14.14,0,0,0,.13-.07l.17-.51c0-.12-.1-.11-.1-.11Z" transform="translate(-3.73 -3)"/><path class="cls-1" d="M27.61,41.53l-.61.41S27,42,27,42a.07.07,0,0,0,.06.07l0,0,.08,0,.21-.09s0,.06,0,.06v1.36c0,.08,0,.1-.08.11h-.2a.07.07,0,0,0-.06.07s0,.06.08.06H28c.06,0,.08,0,.08-.06a.07.07,0,0,0-.06-.07h-.17c-.06,0-.07,0-.07-.11l0-.59v-.49l0-.66v0c0-.09-.05-.1-.07-.1Z" transform="translate(-3.73 -3)"/><path class="cls-1" d="M28.77,43.07a.58.58,0,0,1,.28-.47c.22.13.41.25.41.49a.33.33,0,0,1-.34.36A.36.36,0,0,1,28.77,43.07ZM28.5,42a.58.58,0,0,0,.35.49.66.66,0,0,0-.45.59h0c0,.35.28.56.7.56a.67.67,0,0,0,.75-.63.7.7,0,0,0-.44-.59.57.57,0,0,0,.35-.49c0-.27-.24-.45-.58-.45C28.68,41.49,28.5,41.81,28.5,42Zm.36,0a.26.26,0,0,1,.28-.28.26.26,0,0,1,.26.28.38.38,0,0,1-.22.36C28.94,42.19,28.86,42.09,28.86,42Z" transform="translate(-3.73 -3)"/><path class="cls-1" d="M30.61,43.07a.58.58,0,0,1,.28-.47c.22.13.41.25.41.49a.34.34,0,0,1-.34.36A.36.36,0,0,1,30.61,43.07ZM30.34,42a.57.57,0,0,0,.35.49.67.67,0,0,0-.45.59c0,.35.28.56.7.56a.67.67,0,0,0,.75-.63.7.7,0,0,0-.45-.59.54.54,0,0,0,.35-.49c0-.27-.23-.45-.58-.45S30.34,41.81,30.34,42Zm.35,0a.27.27,0,0,1,.29-.28.26.26,0,0,1,.25.28.36.36,0,0,1-.22.36C30.78,42.19,30.69,42.09,30.69,42Z" transform="translate(-3.73 -3)"/><path class="cls-1" d="M33.17,41.53h-.82c-.07,0-.09,0-.09.06l-.06.71s0,.08.08.09.64.18.64.6a.39.39,0,0,1-.4.44c-.22,0-.33-.1-.33-.31s0-.09-.06-.09-.06.06-.07.08v.34c0,.06,0,.1.06.14h0a.68.68,0,0,0,.27,0,.82.82,0,0,0,.91-.79c0-.45-.45-.69-.88-.77,0-.05,0-.21,0-.25h.45c.19,0,.19,0,.19.1a.07.07,0,0,0,.07.08.06.06,0,0,0,.06-.06l0-.35s0-.09-.07-.09Z" transform="translate(-3.73 -3)"/><path class="cls-1" d="M21.41,40.84A21.21,21.21,0,0,0,23.58,43l6.66-6.67L36.9,43a21.07,21.07,0,0,0,2.16-2.18L30.24,32Z" transform="translate(-3.73 -3)"/><path class="cls-1" d="M30.24,30.07A74.06,74.06,0,0,0,17,31.27c0,.26.09.52.14.78a72.27,72.27,0,0,1,26.23,0c.06-.26.1-.52.15-.78A74.06,74.06,0,0,0,30.24,30.07Z" transform="translate(-3.73 -3)"/><path class="cls-1" d="M35.63,23.25a5.39,5.39,0,1,0-5.39,5.38A5.38,5.38,0,0,0,35.63,23.25ZM30.24,26A2.76,2.76,0,1,1,33,23.25,2.76,2.76,0,0,1,30.24,26Z" transform="translate(-3.73 -3)"/></svg>